<?xml version="1.0" standalone="no"?>
<!DOCTYPE svg PUBLIC "-//W3C//DTD SVG 20010904//EN"
 "http://www.w3.org/TR/2001/REC-SVG-20010904/DTD/svg10.dtd">
<svg version="1.0" xmlns="http://www.w3.org/2000/svg"
 width="512.000000pt" height="512.000000pt" viewBox="0 0 512.000000 512.000000"
 preserveAspectRatio="xMidYMid meet">
<metadata>
Created by potrace 1.14, written by Peter Selinger 2001-2017
</metadata>
<g transform="translate(0.000000,512.000000) scale(0.100000,-0.100000)"
fill="#000000" stroke="none">
<path d="M4 5101 c19 -59 84 -278 196 -661 44 -151 88 -299 97 -328 14 -46 29
-64 126 -155 61 -56 136 -125 167 -154 30 -28 69 -64 85 -79 17 -15 59 -54 96
-88 36 -34 109 -101 163 -151 54 -49 112 -103 130 -120 18 -16 76 -70 129
-118 53 -49 109 -101 124 -115 16 -15 80 -74 143 -132 63 -58 148 -136 190
-175 41 -38 97 -90 124 -115 28 -25 80 -74 118 -109 l67 -64 -20 -25 c-11 -14
-52 -60 -92 -102 -40 -42 -112 -121 -162 -175 -49 -54 -101 -110 -115 -125
-14 -15 -52 -55 -84 -91 -65 -71 -238 -258 -303 -328 -23 -25 -44 -43 -46 -41
-2 3 -47 75 -101 160 -105 166 -127 192 -154 183 -38 -13 -79 -63 -87 -105 -3
-12 42 -113 112 -254 l117 -232 -42 -46 c-43 -47 -50 -73 -32 -120 9 -24 -10
-45 -362 -396 -356 -356 -372 -371 -397 -361 -48 20 -88 3 -149 -63 -69 -75
-62 -93 102 -259 151 -151 165 -161 209 -153 46 9 126 91 133 138 4 21 2 38
-5 42 -6 4 -11 14 -11 21 0 8 167 181 371 384 367 366 370 370 400 359 42 -14
78 -2 122 40 l37 37 228 -114 c125 -63 234 -114 242 -114 39 0 51 5 80 30 37
31 51 61 39 85 -5 9 -82 62 -171 118 -90 57 -165 105 -168 107 -2 2 20 27 50
55 91 83 302 278 540 498 240 223 315 290 320 290 3 0 28 -22 56 -48 27 -26
92 -85 144 -132 51 -47 105 -96 120 -110 15 -14 132 -122 260 -240 129 -118
257 -236 284 -262 28 -25 49 -48 46 -51 -3 -2 -75 -48 -160 -101 -85 -54 -162
-106 -172 -117 -22 -25 -13 -53 29 -89 31 -28 43 -33 84 -33 8 0 118 51 242
113 l228 114 39 -39 c32 -31 47 -39 77 -39 21 0 45 3 54 7 12 6 107 -84 388
-363 l372 -372 -11 -34 c-15 -45 -6 -68 47 -126 52 -54 98 -70 136 -45 32 21
275 265 288 289 19 36 2 81 -51 133 -42 41 -56 49 -87 49 -21 0 -45 -3 -54 -7
-11 -6 -108 85 -387 363 -369 369 -371 370 -360 400 14 42 3 79 -40 123 l-36
37 107 215 c125 247 132 267 113 304 -16 30 -53 65 -78 74 -27 9 -49 -17 -154
-183 -54 -85 -100 -157 -102 -160 -2 -3 -22 15 -44 40 -23 25 -85 92 -139 150
-53 58 -106 114 -116 126 -10 12 -65 72 -123 134 -158 170 -291 315 -363 396
l-37 42 104 97 c58 53 114 105 126 115 20 17 99 90 315 291 56 52 138 128 210
194 17 15 75 68 129 119 54 50 111 102 126 116 169 156 240 221 271 250 20 19
79 73 130 120 52 47 126 117 166 155 l73 70 39 135 c79 272 251 856 260 882 5
15 7 29 5 31 -2 2 -48 -9 -102 -25 -53 -15 -180 -53 -282 -83 -102 -29 -293
-85 -425 -124 l-240 -71 -75 -78 c-41 -43 -113 -120 -160 -172 -117 -128 -134
-146 -204 -221 -33 -36 -101 -109 -151 -163 -49 -54 -101 -110 -115 -125 -85
-91 -227 -246 -240 -261 -8 -10 -62 -68 -120 -130 -58 -62 -114 -122 -125
-135 -66 -71 -218 -236 -263 -284 l-52 -56 -42 45 c-23 25 -87 94 -142 154
-56 59 -114 123 -131 140 -16 18 -50 55 -75 82 -25 27 -93 101 -151 164 -114
123 -118 127 -254 275 -49 54 -103 112 -119 129 -15 17 -49 54 -74 81 -25 28
-75 82 -111 120 -36 39 -115 124 -176 190 -60 66 -137 148 -170 183 l-60 62
-235 69 c-129 38 -307 90 -395 116 -88 26 -189 56 -225 67 -169 50 -201 57
-196 39z"/>
</g>
</svg>
