<svg aria-hidden="true" style="position: absolute; width: 0; height: 0; overflow: hidden;" version="1.1"
  xmlns="http://www.w3.org/2000/svg" xmlns:xlink="http://www.w3.org/1999/xlink">
  <defs>

    <symbol id="icon-modal-email" viewBox="0 0 32 32">
      <path
        d="M26.674 5.335h-21.339c-1.467 0-2.653 1.2-2.653 2.667l-0.014 16.004c0 1.467 1.2 2.667 2.667 2.667h21.339c1.467 0 2.667-1.2 2.667-2.667v-16.004c0-1.467-1.2-2.667-2.667-2.667zM26.141 11.004l-9.428 5.893c-0.201 0.126-0.446 0.2-0.708 0.2s-0.506-0.075-0.713-0.204l0.006 0.003-9.428-5.893c-0.336-0.201-0.557-0.562-0.557-0.976 0-0.626 0.507-1.133 1.133-1.133 0.233 0 0.449 0.070 0.629 0.19l-0.004-0.003 8.936 5.587 8.936-5.589c0.176-0.118 0.392-0.188 0.625-0.188 0.626 0 1.133 0.507 1.133 1.133 0 0.413-0.221 0.775-0.552 0.973l-0.005 0.003z">
      </path>
    </symbol>
    <symbol id="icon-modal-person" viewBox="0 0 32 32">
      <path
        d="M16.004 16.004c2.946 0 5.335-2.388 5.335-5.335s-2.388-5.335-5.335-5.335v0c-2.946 0-5.335 2.388-5.335 5.335s2.388 5.335 5.335 5.335v0zM16.004 18.672c-3.562 0-10.67 1.787-10.67 5.335v1.334c0 0.733 0.599 1.334 1.334 1.334h18.672c0.733 0 1.334-0.601 1.334-1.334v-1.334c0-3.548-7.11-5.335-10.67-5.335z">
      </path>
    </symbol>

  </defs>
</svg>